<?xml version="1.0" standalone="no"?>
<!DOCTYPE svg PUBLIC "-//W3C//DTD SVG 20010904//EN"
 "http://www.w3.org/TR/2001/REC-SVG-20010904/DTD/svg10.dtd">
<svg version="1.0" xmlns="http://www.w3.org/2000/svg"
 width="452.000000pt" height="442.000000pt" viewBox="0 0 452.000000 442.000000"
 preserveAspectRatio="xMidYMid meet">
<metadata>
Created by potrace 1.16, written by Peter Selinger 2001-2019
</metadata>
<g transform="translate(0.000000,442.000000) scale(0.100000,-0.100000)"
fill="#000000" stroke="none">
<path d="M2095 4414 c-534 -41 -1045 -275 -1420 -649 -347 -345 -560 -758
-646 -1251 -18 -106 -22 -169 -23 -349 -1 -244 13 -360 65 -567 136 -542 476
-1023 942 -1332 202 -134 514 -274 585 -262 45 7 81 31 92 62 6 14 10 124 10
245 l0 220 -57 -8 c-32 -4 -121 -8 -198 -8 -122 0 -149 3 -210 24 -152 52
-234 128 -311 288 -79 167 -126 224 -264 326 -50 36 -72 79 -51 100 7 7 41 12
89 12 64 0 87 -5 134 -28 80 -39 161 -116 225 -214 30 -46 75 -101 100 -123
122 -107 290 -136 463 -79 81 26 86 30 94 80 10 63 52 157 91 205 35 43 36 43
13 48 -13 3 -76 14 -141 26 -349 62 -590 218 -727 472 -109 203 -160 553 -116
798 25 136 93 280 196 410 19 24 19 27 4 70 -31 89 -36 293 -8 400 26 104 46
148 69 154 88 22 339 -68 529 -191 67 -43 71 -44 110 -34 154 41 334 62 526
62 174 0 295 -12 450 -45 l115 -24 80 48 c175 106 312 162 435 180 96 14 107
9 129 -65 36 -115 44 -179 38 -312 -3 -85 -10 -144 -22 -176 l-17 -47 31 -36
c70 -79 143 -220 172 -333 42 -160 35 -439 -17 -640 -105 -404 -409 -642 -904
-706 -30 -4 -58 -9 -63 -12 -4 -2 4 -18 18 -35 42 -49 84 -142 100 -219 12
-55 15 -151 15 -439 0 -215 4 -379 10 -394 12 -32 65 -66 103 -66 42 0 206 64
347 136 660 335 1102 950 1216 1694 25 158 25 490 0 648 -77 498 -293 929
-641 1277 -345 346 -781 566 -1270 640 -99 15 -394 26 -490 19z"/>
</g>
</svg>
