<?xml version="1.0" standalone="no"?><svg xmlns="http://www.w3.org/2000/svg" viewBox="0 0 1440 320"><path fill="#5000ca" fill-opacity="1" d="M0,32L0,64L110.8,64L110.8,256L221.5,256L221.5,192L332.3,192L332.3,192L443.1,192L443.1,64L553.8,64L553.8,288L664.6,288L664.6,96L775.4,96L775.4,224L886.2,224L886.2,96L996.9,96L996.9,224L1107.7,224L1107.7,64L1218.5,64L1218.5,128L1329.2,128L1329.2,0L1440,0L1440,320L1329.2,320L1329.2,320L1218.5,320L1218.5,320L1107.7,320L1107.7,320L996.9,320L996.9,320L886.2,320L886.2,320L775.4,320L775.4,320L664.6,320L664.6,320L553.8,320L553.8,320L443.1,320L443.1,320L332.3,320L332.3,320L221.5,320L221.5,320L110.8,320L110.8,320L0,320L0,320Z"></path></svg>