<?xml version="1.0" standalone="no"?><svg xmlns="http://www.w3.org/2000/svg" viewBox="0 0 1440 320"><path fill="#f3f4f5" fill-opacity="1" d="M0,128L0,224L110.8,224L110.8,32L221.5,32L221.5,224L332.3,224L332.3,64L443.1,64L443.1,64L553.8,64L553.8,160L664.6,160L664.6,64L775.4,64L775.4,192L886.2,192L886.2,224L996.9,224L996.9,160L1107.7,160L1107.7,224L1218.5,224L1218.5,32L1329.2,32L1329.2,32L1440,32L1440,320L1329.2,320L1329.2,320L1218.5,320L1218.5,320L1107.7,320L1107.7,320L996.9,320L996.9,320L886.2,320L886.2,320L775.4,320L775.4,320L664.6,320L664.6,320L553.8,320L553.8,320L443.1,320L443.1,320L332.3,320L332.3,320L221.5,320L221.5,320L110.8,320L110.8,320L0,320L0,320Z"></path></svg>