<?xml version="1.0" standalone="no"?><svg xmlns="http://www.w3.org/2000/svg" viewBox="0 0 1440 320"><path fill="#f3f4f5" fill-opacity="1" d="M0,0L0,96L110.8,96L110.8,64L221.5,64L221.5,224L332.3,224L332.3,192L443.1,192L443.1,224L553.8,224L553.8,128L664.6,128L664.6,96L775.4,96L775.4,96L886.2,96L886.2,224L996.9,224L996.9,128L1107.7,128L1107.7,32L1218.5,32L1218.5,160L1329.2,160L1329.2,96L1440,96L1440,0L1329.2,0L1329.2,0L1218.5,0L1218.5,0L1107.7,0L1107.7,0L996.9,0L996.9,0L886.2,0L886.2,0L775.4,0L775.4,0L664.6,0L664.6,0L553.8,0L553.8,0L443.1,0L443.1,0L332.3,0L332.3,0L221.5,0L221.5,0L110.8,0L110.8,0L0,0L0,0Z"></path></svg>